<svg xmlns="http://www.w3.org/2000/svg" xmlns:xlink="http://www.w3.org/1999/xlink" version="1.1" x="0px" y="0px" viewBox="0 0 100 100" style="enable-background:new 0 0 100 100;" xml:space="preserve"><g><path d="M53.1,7.5c-1.7-1.6-4.5-1.6-6.2,0L5.5,45.2c-1.8,1.7-1.9,4.6-0.3,6.5c0.9,1,2.2,1.5,3.4,1.5   c1.1,0,2.2-0.3,3.1-1.1l38.3-35L88.3,52c1.8,1.7,4.8,1.6,6.5-0.3c1.7-1.8,1.6-4.8-0.3-6.5L53.1,7.5z"></path><path d="M16.3,51.4l6.9,42.3h20.9L42.2,73c-0.1-0.7,0.5-1.3,1.1-1.3h13.4c0.7,0,1.3,0.6,1.1,1.3L56,93.7h21.4   l6.9-42.3L50,21.2L16.3,51.4z"></path></g></svg>