<?xml version="1.0" encoding="UTF-8"?>
<svg width="63px" height="34px" viewBox="0 0 63 34" version="1.1" xmlns="http://www.w3.org/2000/svg" xmlns:xlink="http://www.w3.org/1999/xlink">
    <!-- Generator: Sketch 42 (36781) - http://www.bohemiancoding.com/sketch -->
    <title>Shape</title>
    <desc>Created with Sketch.</desc>
    <defs></defs>
    <g id="Page-1" stroke="none" stroke-width="1" fill="none" fill-rule="evenodd">
        <g id="noun_344132_cc" transform="translate(-1.000000, 0.000000)" fill-rule="nonzero" fill="#060605">
            <path d="M26.03,33.79 C25.1869342,33.7895658 24.4008694,33.3642463 23.939285,32.6587678 C23.4777005,31.9532894 23.4027735,31.0626826 23.74,30.29 L36.36,1.5 C36.9383566,0.279271636 38.3818114,-0.261266327 39.6197332,0.279310882 C40.857655,0.819888092 41.4422874,2.24605362 40.94,3.5 L28.36,32.25 C27.9692137,33.1897583 27.0477338,33.7988051 26.03,33.79 L26.03,33.79 Z M50.44,30.53 C49.4464945,30.5287964 48.5479854,29.9394169 48.1511349,29.0286126 C47.7542845,28.1178084 47.934415,27.0584501 48.61,26.33 L57.68,16.54 L48.68,7.54 C47.702456,6.56245599 47.702456,4.97754401 48.68,4 C49.657544,3.02245599 51.242456,3.02245599 52.22,4 L62.93,14.71 C63.8832128,15.659411 63.9141481,17.1929189 63,18.18 L52.29,29.73 C51.8118814,30.2417954 51.1403275,30.5285671 50.44,30.52 L50.44,30.53 Z M14.21,30.53 C13.5462881,30.5322907 12.9091285,30.2695073 12.44,29.8 L1.73,19.09 C0.776787187,18.140589 0.745851871,16.6070811 1.66,15.62 L12.36,4.06 C13.2988841,3.04655748 14.8815575,2.98611593 15.895,3.925 C16.9084425,4.86388407 16.9688841,6.44655748 16.03,7.46 L6.97,17.25 L15.97,26.25 C16.685597,26.9637853 16.900998,28.0382364 16.5158338,28.9726973 C16.1306696,29.9071582 15.2207243,30.5177663 14.21,30.52 L14.21,30.53 Z" id="Shape"></path>
        </g>
    </g>
</svg>