<?xml version="1.0" encoding="UTF-8"?>
<svg width="76px" height="84px" viewBox="0 0 76 84" version="1.1" xmlns="http://www.w3.org/2000/svg" xmlns:xlink="http://www.w3.org/1999/xlink">
    <!-- Generator: Sketch 42 (36781) - http://www.bohemiancoding.com/sketch -->
    <title>Group</title>
    <desc>Created with Sketch.</desc>
    <defs></defs>
    <g id="Page-1" stroke="none" stroke-width="1" fill="none" fill-rule="evenodd">
        <g id="noun_782579_cc" transform="translate(0.000000, -1.000000)" fill-rule="nonzero" fill="#000000">
            <g id="Group" transform="translate(0.000000, 0.637820)">
                <path d="M11,0.36217 C10.4114,0.36217 10,0.80818 10,1.36217 L10,10.36217 L18,10.36217 C20.1814,10.36217 22,12.18077 22,14.36217 L22,16.36217 C22,18.54357 20.1814,20.36217 18,20.36217 L10,20.36217 L10,28.36217 L18,28.36217 C20.1814,28.36217 22,30.18077 22,32.36217 L22,34.36217 C22,36.54357 20.1814,38.36217 18,38.36217 L10,38.36217 L10,46.3622 L18,46.3622 C20.1814,46.3622 22,48.1808 22,50.3622 L22,52.3622 C22,54.5436 20.1814,56.3622 18,56.3622 L10,56.3622 L10,64.3622 L18,64.3622 C20.1814,64.3622 22,66.1808 22,68.3622 L22,70.3622 C22,72.5436 20.1814,74.3622 18,74.3622 L10,74.3622 L10,83.3622 C10,83.9162 10.4114,84.3622 11,84.3622 L75,84.3622 C75.5886,84.3622 76,83.9162 76,83.3622 L76,1.36217 C76,0.80818 75.5886,0.36217 75,0.36217 L11,0.36217 Z M2,12.36217 C0.892,12.36217 0,13.25418 0,14.36217 L0,16.36217 C0,17.47016 0.892,18.36217 2,18.36217 L18,18.36217 C19.108,18.36217 20,17.47016 20,16.36217 L20,14.36217 C20,13.25418 19.108,12.36217 18,12.36217 L2,12.36217 Z M47,19.36217 C51.4183,19.36217 55,22.94389 55,27.36217 C55,31.78045 51.4183,35.36217 47,35.36217 C42.5817,35.36217 39,31.78045 39,27.36217 C39,22.94389 42.5817,19.36217 47,19.36217 Z M2,30.36217 C0.892,30.36217 0,31.25418 0,32.36217 L0,34.36217 C0,35.47016 0.892,36.36217 2,36.36217 L18,36.36217 C19.108,36.36217 20,35.47016 20,34.36217 L20,32.36217 C20,31.25418 19.108,30.36217 18,30.36217 L2,30.36217 Z M47,40.3622 C57.526,40.3622 66,45.2067 66,51.3622 L66,63.3622 L28,63.3622 L28,51.3622 C28,45.2067 36.474,40.3622 47,40.3622 Z M2,48.3622 C0.892,48.3622 0,49.2542 0,50.3622 L0,52.3622 C0,53.4702 0.892,54.3622 2,54.3622 L18,54.3622 C19.108,54.3622 20,53.4702 20,52.3622 L20,50.3622 C20,49.2542 19.108,48.3622 18,48.3622 L2,48.3622 Z M2,66.3622 C0.892,66.3622 0,67.2542 0,68.3622 L0,70.3622 C0,71.4702 0.892,72.3622 2,72.3622 L18,72.3622 C19.108,72.3622 20,71.4702 20,70.3622 L20,68.3622 C20,67.2542 19.108,66.3622 18,66.3622 L2,66.3622 Z" id="Shape"></path>
            </g>
        </g>
    </g>
</svg>